<?xml version="1.0" encoding="UTF-8" standalone="no"?>
<svg width="6px" height="14px" viewBox="0 0 6 14" version="1.1" xmlns="http://www.w3.org/2000/svg" xmlns:xlink="http://www.w3.org/1999/xlink">
    <!-- Generator: Sketch 3.6 (26304) - http://www.bohemiancoding.com/sketch -->
    <title>Combined Shape</title>
    <desc>Created with Sketch.</desc>
    <defs></defs>
    <g id="Page-1" stroke="none" stroke-width="1" fill="none" fill-rule="evenodd" opacity="0.5">
        <path d="M0,0 L2,0 L2,2 L0,2 L0,0 Z M4,0 L6,0 L6,2 L4,2 L4,0 Z M0,4 L2,4 L2,6 L0,6 L0,4 Z M4,4 L6,4 L6,6 L4,6 L4,4 Z M0,8 L2,8 L2,10 L0,10 L0,8 Z M4,8 L6,8 L6,10 L4,10 L4,8 Z M0,12 L2,12 L2,14 L0,14 L0,12 Z M4,12 L6,12 L6,14 L4,14 L4,12 Z" id="Combined-Shape" fill="#B3B3B3"></path>
    </g>
</svg>