<?xml version="1.0" encoding="UTF-8"?>
<svg width="430px" height="106px" viewBox="0 0 430 106" version="1.1" xmlns="http://www.w3.org/2000/svg" xmlns:xlink="http://www.w3.org/1999/xlink">
    <!-- Generator: Sketch Beta 47 (45292) - http://www.bohemiancoding.com/sketch -->
    <title>ะต</title>
    <desc>Created with Sketch Beta.</desc>
    <defs></defs>
    <g id="Page-1" stroke="none" stroke-width="1" fill="none" fill-rule="evenodd">
        <g id="ะต" fill="#000000">
            <path d="M17.3759591,1.31891137 L78.228474,72.7599442 L78.228474,1.31891137 L97.5839727,1.31891137 L97.5839727,103.681089 L80.5745951,103.681089 L19.3554987,31.0676902 L19.3554987,103.681089 L0,103.681089 L0,1.31891137 L17.3759591,1.31891137 Z M172.58653,0 C183.193006,0 192.736246,2.18595162 201.216539,6.55792045 C209.696831,10.9298893 216.454081,17.2312917 221.488491,25.4623168 C226.522901,33.6933419 229.040068,42.7180249 229.040068,52.5366364 C229.040068,62.1110039 226.583997,70.9891426 221.671782,79.1713189 C216.759566,87.3534952 210.014536,93.7037457 201.436488,98.222261 C192.85844,102.740776 183.193006,105 172.439898,105 C161.833422,105 152.192428,102.70414 143.516624,98.1123517 C134.840821,93.5205632 128.083571,87.2069488 123.244672,79.1713189 C118.405773,71.1356891 115.98636,62.2575503 115.98636,52.5366364 C115.98636,43.1576642 118.405773,34.3405856 123.244672,26.0851361 C128.083571,17.8296866 134.755286,11.4183759 143.260017,6.85101186 C151.764748,2.28364778 161.540155,0 172.58653,0 Z M136.441603,52.5366364 C136.441603,59.3266215 137.981229,65.4326316 141.060529,70.85485 C144.139828,76.2770683 148.428788,80.4780032 153.927536,83.4577809 C159.426285,86.4375585 165.645887,87.927425 172.58653,87.927425 C183.09525,87.927425 191.734266,84.6301795 198.503836,78.0355897 C205.273407,71.4409998 208.658142,62.9414337 208.658142,52.5366364 C208.658142,45.7466513 207.130734,39.6284292 204.075874,34.1817865 C201.021013,28.7351437 196.719835,24.5219968 191.172208,21.5422191 C185.624582,18.5624415 179.380541,17.072575 172.439898,17.072575 C165.499255,17.072575 159.255214,18.5746535 153.707587,21.5788555 C148.159961,24.5830576 143.89544,28.7839926 140.913896,34.1817865 C137.932352,39.5795804 136.441603,45.6978025 136.441603,52.5366364 Z M254.920716,1.31891137 L283.880648,67.0446615 L312.107417,1.31891137 L332.855925,1.31891137 L287.619778,105 L280.728048,105 L234.025575,1.31891137 L254.920716,1.31891137 Z M384.763853,1.31891137 L430,103.681089 L409.104859,103.681089 L398.473998,78.7683182 L352.944587,78.7683182 L343.046888,103.681089 L322.29838,103.681089 L364.528559,1.31891137 L384.763853,1.31891137 Z M358.956522,63.7473831 L392.022165,63.7473831 L374.719523,23.2274948 L358.956522,63.7473831 Z" id="NOVA"></path>
        </g>
    </g>
</svg>